<mxfile host="www.draw.io" modified="2019-11-28T03:40:31.863Z" agent="Mozilla/5.0 (Windows NT 10.0; Win64; x64) AppleWebKit/537.36 (KHTML, like Gecko) Chrome/78.0.3904.108 Safari/537.36" etag="Bm71WI0S-Gd724P4zQp7" version="12.3.2" type="github" pages="1">
  <diagram id="AXix5uPONZG3c-1EUoav" name="第 1 页">
    <mxGraphModel dx="1422" dy="713" grid="1" gridSize="10" guides="1" tooltips="1" connect="1" arrows="1" fold="1" page="1" pageScale="1" pageWidth="827" pageHeight="1169" math="0" shadow="0">
      <root>
        <mxCell id="0"/>
        <mxCell id="1" parent="0"/>
        <mxCell id="E2xX7z22-sIPiFtW3mOA-16" style="edgeStyle=orthogonalEdgeStyle;rounded=0;orthogonalLoop=1;jettySize=auto;html=1;entryX=0;entryY=0.25;entryDx=0;entryDy=0;" edge="1" parent="1" source="E2xX7z22-sIPiFtW3mOA-1" target="E2xX7z22-sIPiFtW3mOA-8">
          <mxGeometry relative="1" as="geometry">
            <Array as="points">
              <mxPoint x="30" y="240"/>
              <mxPoint x="30" y="105"/>
            </Array>
          </mxGeometry>
        </mxCell>
        <mxCell id="E2xX7z22-sIPiFtW3mOA-19" style="edgeStyle=orthogonalEdgeStyle;rounded=0;orthogonalLoop=1;jettySize=auto;html=1;" edge="1" parent="1" source="E2xX7z22-sIPiFtW3mOA-1" target="E2xX7z22-sIPiFtW3mOA-5">
          <mxGeometry relative="1" as="geometry"/>
        </mxCell>
        <mxCell id="E2xX7z22-sIPiFtW3mOA-1" value="客户端" style="rounded=0;whiteSpace=wrap;html=1;" vertex="1" parent="1">
          <mxGeometry x="50" y="210" width="120" height="60" as="geometry"/>
        </mxCell>
        <mxCell id="E2xX7z22-sIPiFtW3mOA-17" style="edgeStyle=orthogonalEdgeStyle;rounded=0;orthogonalLoop=1;jettySize=auto;html=1;entryX=0;entryY=0.5;entryDx=0;entryDy=0;" edge="1" parent="1" source="E2xX7z22-sIPiFtW3mOA-3" target="E2xX7z22-sIPiFtW3mOA-8">
          <mxGeometry relative="1" as="geometry">
            <Array as="points">
              <mxPoint x="20" y="350"/>
              <mxPoint x="20" y="120"/>
            </Array>
          </mxGeometry>
        </mxCell>
        <mxCell id="E2xX7z22-sIPiFtW3mOA-20" style="edgeStyle=orthogonalEdgeStyle;rounded=0;orthogonalLoop=1;jettySize=auto;html=1;" edge="1" parent="1" source="E2xX7z22-sIPiFtW3mOA-3" target="E2xX7z22-sIPiFtW3mOA-6">
          <mxGeometry relative="1" as="geometry"/>
        </mxCell>
        <mxCell id="E2xX7z22-sIPiFtW3mOA-3" value="客户端" style="rounded=0;whiteSpace=wrap;html=1;" vertex="1" parent="1">
          <mxGeometry x="50" y="320" width="120" height="60" as="geometry"/>
        </mxCell>
        <mxCell id="E2xX7z22-sIPiFtW3mOA-18" style="edgeStyle=orthogonalEdgeStyle;rounded=0;orthogonalLoop=1;jettySize=auto;html=1;entryX=0;entryY=0.75;entryDx=0;entryDy=0;" edge="1" parent="1" source="E2xX7z22-sIPiFtW3mOA-4" target="E2xX7z22-sIPiFtW3mOA-8">
          <mxGeometry relative="1" as="geometry">
            <Array as="points">
              <mxPoint x="10" y="460"/>
              <mxPoint x="10" y="135"/>
            </Array>
          </mxGeometry>
        </mxCell>
        <mxCell id="E2xX7z22-sIPiFtW3mOA-21" style="edgeStyle=orthogonalEdgeStyle;rounded=0;orthogonalLoop=1;jettySize=auto;html=1;" edge="1" parent="1" source="E2xX7z22-sIPiFtW3mOA-4" target="E2xX7z22-sIPiFtW3mOA-7">
          <mxGeometry relative="1" as="geometry"/>
        </mxCell>
        <mxCell id="E2xX7z22-sIPiFtW3mOA-4" value="客户端" style="rounded=0;whiteSpace=wrap;html=1;" vertex="1" parent="1">
          <mxGeometry x="50" y="430" width="120" height="60" as="geometry"/>
        </mxCell>
        <mxCell id="E2xX7z22-sIPiFtW3mOA-24" style="edgeStyle=orthogonalEdgeStyle;rounded=0;orthogonalLoop=1;jettySize=auto;html=1;entryX=0;entryY=0.25;entryDx=0;entryDy=0;" edge="1" parent="1" source="E2xX7z22-sIPiFtW3mOA-5" target="E2xX7z22-sIPiFtW3mOA-22">
          <mxGeometry relative="1" as="geometry"/>
        </mxCell>
        <mxCell id="E2xX7z22-sIPiFtW3mOA-5" value="SocketChannel" style="rounded=0;whiteSpace=wrap;html=1;" vertex="1" parent="1">
          <mxGeometry x="293" y="210" width="120" height="60" as="geometry"/>
        </mxCell>
        <mxCell id="E2xX7z22-sIPiFtW3mOA-25" style="edgeStyle=orthogonalEdgeStyle;rounded=0;orthogonalLoop=1;jettySize=auto;html=1;entryX=0;entryY=0.5;entryDx=0;entryDy=0;" edge="1" parent="1" source="E2xX7z22-sIPiFtW3mOA-6" target="E2xX7z22-sIPiFtW3mOA-22">
          <mxGeometry relative="1" as="geometry"/>
        </mxCell>
        <mxCell id="E2xX7z22-sIPiFtW3mOA-6" value="SocketChannel" style="rounded=0;whiteSpace=wrap;html=1;" vertex="1" parent="1">
          <mxGeometry x="293" y="320" width="120" height="60" as="geometry"/>
        </mxCell>
        <mxCell id="E2xX7z22-sIPiFtW3mOA-26" style="edgeStyle=orthogonalEdgeStyle;rounded=0;orthogonalLoop=1;jettySize=auto;html=1;entryX=0;entryY=0.75;entryDx=0;entryDy=0;" edge="1" parent="1" source="E2xX7z22-sIPiFtW3mOA-7" target="E2xX7z22-sIPiFtW3mOA-22">
          <mxGeometry relative="1" as="geometry"/>
        </mxCell>
        <mxCell id="E2xX7z22-sIPiFtW3mOA-7" value="SocketChannel" style="rounded=0;whiteSpace=wrap;html=1;" vertex="1" parent="1">
          <mxGeometry x="293" y="430" width="120" height="60" as="geometry"/>
        </mxCell>
        <mxCell id="E2xX7z22-sIPiFtW3mOA-23" style="edgeStyle=orthogonalEdgeStyle;rounded=0;orthogonalLoop=1;jettySize=auto;html=1;entryX=0.5;entryY=0;entryDx=0;entryDy=0;" edge="1" parent="1" source="E2xX7z22-sIPiFtW3mOA-8" target="E2xX7z22-sIPiFtW3mOA-22">
          <mxGeometry relative="1" as="geometry"/>
        </mxCell>
        <mxCell id="E2xX7z22-sIPiFtW3mOA-8" value="ServerSocketChannel" style="rounded=0;whiteSpace=wrap;html=1;" vertex="1" parent="1">
          <mxGeometry x="283" y="90" width="140" height="60" as="geometry"/>
        </mxCell>
        <mxCell id="E2xX7z22-sIPiFtW3mOA-30" style="edgeStyle=orthogonalEdgeStyle;rounded=0;orthogonalLoop=1;jettySize=auto;html=1;entryX=0;entryY=0.5;entryDx=0;entryDy=0;" edge="1" parent="1" source="E2xX7z22-sIPiFtW3mOA-22" target="E2xX7z22-sIPiFtW3mOA-27">
          <mxGeometry relative="1" as="geometry"/>
        </mxCell>
        <mxCell id="E2xX7z22-sIPiFtW3mOA-22" value="Selector" style="rounded=0;whiteSpace=wrap;html=1;fillColor=#d80073;strokeColor=#A50040;fontColor=#ffffff;" vertex="1" parent="1">
          <mxGeometry x="500" y="320" width="120" height="60" as="geometry"/>
        </mxCell>
        <mxCell id="E2xX7z22-sIPiFtW3mOA-29" style="edgeStyle=orthogonalEdgeStyle;rounded=0;orthogonalLoop=1;jettySize=auto;html=1;entryX=0.5;entryY=0;entryDx=0;entryDy=0;" edge="1" parent="1" source="E2xX7z22-sIPiFtW3mOA-27" target="E2xX7z22-sIPiFtW3mOA-28">
          <mxGeometry relative="1" as="geometry"/>
        </mxCell>
        <mxCell id="E2xX7z22-sIPiFtW3mOA-27" value="请求队列&lt;br&gt;(SelectionKey)" style="rounded=0;whiteSpace=wrap;html=1;" vertex="1" parent="1">
          <mxGeometry x="660" y="320" width="120" height="60" as="geometry"/>
        </mxCell>
        <mxCell id="E2xX7z22-sIPiFtW3mOA-28" value="线程池" style="rounded=0;whiteSpace=wrap;html=1;" vertex="1" parent="1">
          <mxGeometry x="660" y="460" width="120" height="60" as="geometry"/>
        </mxCell>
      </root>
    </mxGraphModel>
  </diagram>
</mxfile>
